/* XPM */
static char *onotoa[] = {
/* columns rows colors chars-per-pixel */
"48 48 248 2",
"   c #12FE0E",
".  c #15FF13",
"X  c #1CFE14",
"o  c #15FE1C",
"O  c #1BFE1C",
"+  c #22FE14",
"@  c #2DFF13",
"#  c #22FE1B",
"$  c #2AFE1B",
"%  c #1CFE23",
"&  c #17FE29",
"*  c #1CFE2A",
"=  c #1CFE33",
"-  c #18FE39",
";  c #23FE25",
":  c #29FE25",
">  c #23FE2C",
",  c #2DFF2B",
"<  c #39FD2C",
"1  c #24FE33",
"2  c #2BFE33",
"3  c #24FE3B",
"4  c #2AFD3B",
"5  c #3EFE34",
"6  c #34FD3A",
"7  c #46FE28",
"8  c #47FE39",
"9  c #1EFE45",
"0  c #1FFC4C",
"q  c #26FD48",
"w  c #32FC44",
"e  c #3DFD42",
"r  c #36FE49",
"t  c #25FE59",
"y  c #31FC5F",
"u  c #2DF969",
"i  c #24FA71",
"p  c #4DFE49",
"a  c #58FC49",
"s  c #49FE59",
"d  c #57FF5A",
"f  c #64FF49",
"g  c #72FE4A",
"h  c #6AFE56",
"j  c #64FD5B",
"k  c #45FD64",
"l  c #57FE6C",
"z  c #4AFE70",
"x  c #56FA74",
"c  c #78FE65",
"v  c #6DF275",
"b  c #6DFD7C",
"n  c #77FF7C",
"m  c #8DFE57",
"M  c #92FE6F",
"N  c #99FF6B",
"B  c #85FE77",
"V  c #A2FE65",
"C  c #BFFE7C",
"Z  c #C2FF74",
"A  c #3053FE",
"S  c #4E5DFE",
"D  c #4A6DFE",
"F  c #4D79FC",
"G  c #5B76FC",
"H  c #6763FE",
"J  c #6F72FE",
"K  c #2AFC84",
"L  c #36F89C",
"P  c #48F48D",
"I  c #5EE796",
"U  c #58FB9A",
"Y  c #72F791",
"T  c #5FDEBD",
"R  c #59FAAD",
"E  c #58ECB0",
"W  c #77EDAC",
"Q  c #69F8A9",
"!  c #79FDB9",
"~  c #5AA6DF",
"^  c #6AB6DE",
"/  c #488AEE",
"(  c #5C89FA",
")  c #5193F5",
"_  c #698BFC",
"`  c #758EFB",
"'  c #6E96FB",
"]  c #7593FB",
"[  c #7A95FB",
"{  c #7C9BFB",
"}  c #5FA4E2",
"|  c #6AA3F8",
" . c #76A2FA",
".. c #7DADFD",
"X. c #79B9F7",
"o. c #73DBCA",
"O. c #73D3D4",
"+. c #70EDC6",
"@. c #7EE9DE",
"#. c #7BD7E5",
"$. c #79D8F9",
"%. c #69E1E3",
"&. c #8BFE86",
"*. c #97FE8B",
"=. c #87E391",
"-. c #98FF95",
";. c #A7FE98",
":. c #B2F791",
">. c #93DDA4",
",. c #B8DEBC",
"<. c #8CE1A6",
"1. c #86F8AB",
"2. c #99FBA9",
"3. c #88E8B9",
"4. c #96ECBB",
"5. c #97FCBC",
"6. c #A7FDA4",
"7. c #ACFEAA",
"8. c #B7FEA8",
"9. c #B5E9BA",
"0. c #A7F3B6",
"q. c #B6FDB8",
"w. c #CAFC8F",
"e. c #CFFD98",
"r. c #E5FF9A",
"t. c #C5FDAE",
"y. c #D5FEA9",
"u. c #CCFBB7",
"i. c #DAFCB7",
"p. c #888AFD",
"a. c #8897FC",
"s. c #A29BFF",
"d. c #86A4FB",
"f. c #84ACFD",
"g. c #8CACFB",
"h. c #97A4FC",
"j. c #94AEFB",
"k. c #86B5F8",
"l. c #8CB3FD",
"z. c #8CBCFD",
"x. c #93B5FB",
"c. c #9BB4FA",
"v. c #95BCFC",
"b. c #9CBBFC",
"n. c #A6A8FD",
"m. c #B3ADFE",
"M. c #A7B9F9",
"N. c #A4BBFB",
"B. c #B8B7FD",
"V. c #C3B9FD",
"C. c #93D4D8",
"Z. c #B0D9D0",
"A. c #87EDC7",
"S. c #93F3CD",
"D. c #97E5D8",
"F. c #8AFBD3",
"G. c #99FCDE",
"H. c #AFE4C3",
"J. c #B2EDC7",
"K. c #ABFACA",
"L. c #B9FDC5",
"P. c #B7F3D7",
"I. c #88CEEB",
"U. c #93C3FD",
"Y. c #9DC3FD",
"T. c #9BC8F9",
"R. c #9ECCFC",
"E. c #8BDBF5",
"W. c #99D9F6",
"Q. c #A8D9E4",
"!. c #B4D0EC",
"~. c #A3C3FD",
"^. c #A9C6FA",
"/. c #A4CBFE",
"(. c #ABCDFC",
"). c #B5C6FC",
"_. c #BECCFC",
"`. c #A6D7F9",
"'. c #ADD4FC",
"]. c #B9DCF5",
"[. c #B2D3FD",
"{. c #BCD6FD",
"}. c #B4DBFD",
"|. c #BCDCFD",
" X c #9EE8F4",
".X c #A4EDED",
"XX c #BCE3FE",
"oX c #B7F1F9",
"OX c #C3DBCB",
"+X c #C5FAC2",
"@X c #CCFDC3",
"#X c #C3FDCB",
"$X c #D7FEC2",
"%X c #D2FECA",
"&X c #DBFECC",
"*X c #CDFCD3",
"=X c #D4FDD2",
"-X c #DBFCDB",
";X c #E6FFCD",
":X c #E8FCD6",
">X c #E4FEDC",
",X c #F5FFD8",
"<X c #C5C5FC",
"1X c #C9C9FB",
"2X c #C5D4FC",
"3X c #CBD3FB",
"4X c #C2DBFC",
"5X c #CEDDFA",
"6X c #D6D7FC",
"7X c #E2DEFD",
"8X c #C4E3E8",
"9X c #D8EBEC",
"0X c #C7FAE8",
"qX c #D7FBE8",
"wX c #C4E4FD",
"eX c #CAE2FC",
"rX c #C6EDFD",
"tX c #CBEAFE",
"yX c #D9E6FA",
"uX c #D3EBFC",
"iX c #DBEBFC",
"pX c #CCF7F8",
"aX c #D6F8F7",
"sX c #DDF6FE",
"dX c #DBFAFE",
"fX c #E0ECE1",
"gX c #E6FEE3",
"hX c #EBFEE4",
"jX c #E4F9E9",
"kX c #EEFEEC",
"lX c #F5FFE9",
"zX c #F3FEEC",
"xX c #E2E5FB",
"cX c #EBE6FB",
"vX c #E3EBFB",
"bX c #ECEBFB",
"nX c #F2EDFB",
"mX c #EDF3FC",
"MX c #E3FCFD",
"NX c #ECFBFD",
"BX c #F7F6F6",
"VX c #F8F6F6",
"CX c #F4FDF4",
"ZX c #F9FFF1",
"AX c #F3F4FC",
"SX c #F9F6FB",
"DX c #F5F9FD",
"FX c #FEFEFE",
/* pixels */
"FXBXFXCXaX].B.<XxXnXVXBXVXVXVXSXVXVXFXVXVXFXFXVXFXFXSXFXFXVXFXFXZXVXFXSXVXVXBXVXVXVXFXVXSXFXVXBX",
"FXSXFXFXqXD.I.d.J V.VXAXSXFXFXFXFXFXFXFXFXFXFXFXFXFXFXFXFXFXFXFXFXFXFXFXFXFXFXFXFXFXFXFXFXFXFXFX",
"FXVXFXFXFXlX:X9Xx.h.6XnXSXVXSXSXSXDXFXFXFXFXFXSXVXFXVXCXVXFXFXFXFXFXFXFXVXVXFXFXFXFXFXFXFXFXFXFX",
"FXCX6.*.-XCXCXkXgX!.M.c.B.7X6XcXFXBXmXBXFXSXFXFXFXFXFXFXFXFXFXFXFXFXFXFXFXFXFXFXFXFXFXFXFXFXFXFX",
"FX*Xe ; d %XZXgXhXhX9X^.| G S a.m.s.m.B.<X6XSXFXSXFXFXFXFXFXFXFXVXFXFXFXFXBXFXFXFXFXFXFXFXFXFXFX",
"FX*Xs 2 ; j %XzXhXgXlXzXqXQ.l._ D A S G p.n.3XbXbXSXDXSXVXFXFXFXFXFXFXFXFXFXFXFXFXFXFXFXFXFXFXFX",
"FXjXY ; # O < -.hXZXgXjXkXzXkXpXW.$.$.| F D G s.1X1X7XcXnXBXCXFXFXFXFXFXFXFXFXFXFXFXFXFXFXFXFXFX",
"FXFXqX2.s ; O   j @XzXkXgXhXCX-X*XqXaXkXpX5Xk./ G p.6XnXnXcXnXSXBXFXFXFXFXFXFXFXFXFXFXFXFXFXFXFX",
"FXSXFXNXG.Q r @ @ 7 B 8.-XzX>X=XgXkXkXzXZXlXq.1.I T X.l.^.3X7XbXBXSXFXFXFXFXFXFXFXFXFXFXFXFXFXFX",
"FXVXNXaXaXMXq.j < . . $ f c n #XCXCXzXzXhXgX@X8.:.0.S.@.#.X. .n.nXSXFXFXFXFXFXFXFXFXFXFXFXFXFXFX",
"FXFXDXMXsXMXNXqX2.l 5 7 # 2 U G.2.L.gXzXlXZXzX&X:X*Xq.q.q.S.T / a.cXFXFXFXFXFXFXFXFXFXFXFXFXFXFX",
"FXDXDXmXMXdXMXNXCXaXP.Y z 1.G.x 6 k l b *.*.h 8 n 8.u.@Xu.8.-.+.) h.SXFXFXFXFXFXFXFXFXFXFXFXFXFX",
"FXSXFXSXNXMXMXMXdXdXdX0XpXpXG.P y 0 3 ; $ # # * : , d 7.=Xu.6.q.q.} _.BXDXFXFXFXFXFXFXFXFXFXFXFX",
"FXFXFXFXDXMXsXiXtXaXpXrXrXrXrXoXG.! P q # : ; ; 1 > * 6 *.i.$X@Xe.2.X.AXFXFXFXFXFXFXFXFXFXFXFXFX",
"FXFXFXFXFXNXiXuXtXrXwXwXXXXXXXXXtXrXoXF.R K q 3 * = * % O p j c -.y.W T.SXFXFXFXFXFXFXFXFXFXFXFX",
"FXVXFXFXFXNXvXsXuX4X4X|.}.XX`.}.}.wXwXtXXX X+.u 0 * % % ; % . ; j :.y.>.M.SXFXFXFXFXFXxXbXFXFXFX",
"FXSXFXFXFXDXDXmXvX5X{.{.[./.v.~.(.}.|.XX|.[.{. XE u q r k 4 % X o c y.u.O.M.nXFXVXFX1XH m.SXSXFX",
"FXFXFXFXFXFXFXDXAXxX5X2X[.~.x.v./.'.'.(./.~.~.[.wX.XS.K.5.k % % = = B &X#XC. ._.FXFXB.s.cXCXFXFX",
"FXFXFXFXFXFXFXFXFXAXvXvXvX5X2X4X{.(.Y.l.g.f.l./.|.|.eXtXXXQ.I t 9 % 2 -.=X%XO.) V.nXcXlXFXFXFXFX",
"FXSXFXFXFXFXFXFXFXFXSXFXDXFXSXmXvXeX{.b.g. .f.~.}.|.XX|.^.v.T.+.t * * , -.+XK.o./ H 3XVXFXFXVXFX",
"FXFXFXFXFXFXFXFXFXFXFXFXDXFXFXFXFXFXAXvX2XM.b.^.(.'.(.~.v.b.~.~.E.L q ; , B +X0XI.( B.FXFXSXFXFX",
"FXBXFXFXFXFXFXFXFXFXFXFXFXDXDXFXFXFXFXFXAXyX2XM.b.N.x.g.x.v.v.Y.^.E.R - o p ;.L.u.6.^ n.6XDXFXFX",
"FXSXFXFXFXFXFXFXFXFXFXFXDXDXAXFXFXFXFXFXFXmX6XM.j.j.d.j.c.b.v.x.U.[.E.L 0 o 6 B :.N Y } 1XSXFXFX",
"FXFXFXFXFXFXFXFXFXFXFXFXFXFXFXFXFXFXFXFXFXDXbX2XN.g.g.j.b.N.c.z.z.U.U.$.i t 1 2 g M &.o.(.SXFXFX",
"FXBXFXFXFXFXFXFXFXFXFXFXFXFXFXFXFXFXFXFXFXFXDXbX_.c.j.c.c.c.l.f...z.R.R.%.i : 4 : a -.A.k.bXSXFX",
"FXFXFXFXFXFXFXFXFXFXDXFXFXFXFXFXFXDXFXFXFXFXFXFX3XN.d.d.h. . . ...l.z.U.z.E q w ; 2 b 8.C.1XSXFX",
"FXFXFXFXFXFXFXFXFXFXFXFXFXFXFXFXFXFXFXFXFXFXFXDXyXc.[ [ ] [  .f.l...X.z.R.E.R 5 6 X j :.>.!.SXSX",
"FXVXFXFXFXFXFXFXFXFXFXFXFXFXFXFXFXFXFXFXFXDXFXFXcXM.[ ` ] { g.j.g.k.l.~./.`.@.l 5 $ 8 N =.!.FXSX",
"FXSXFXFXFXFXFXFXFXFXFXFXFXFXFXFXFXFXFXFXFXFXFXDXbX_.a.` ] [ [ { d.{ l.v.~.W.[.3.5 # X M >.Z.VXFX",
"FXFXFXFXFXFXFXFXFXFXFXFXFXFXFXDXFXFXFXFXFXDXFXFXAX3Xj.` ` ` ] ] _ ( ' k.z.T.!.D.e # # V w.H.SXVX",
"FXVXFXFXFXFXFXFXFXFXFXFXFXFXFXSXSXFXFXFXFXFXFXFXDXxXN.` _ ` ] ' ( ( { ....U.].I.u + # m Z <.9XFX",
"FXFXFXFXFXFXFXFXFXFXFXFXFXFXFXSXFXDXFXFXFXFXFXFXFXAX<Xa.a.a.[ ] { g.x.f...U.[.T.P % X < V v 8XFX",
"FXFXFXFXFXFXFXFXFXFXFXFXFXFXFXFXFXFXFXFXFXFXFXFXFXFXbX3X).M.M.M.2X2X2X).b.v./.`.I % & : V N Z.nX",
"FXFXFXFXFXFXFXFXFXFXFXFXFXFXFXFXFXFXFXFXFXFXFXFXFXFXDXbXxXxXbXnXAXbXAXbX2X~.T.`.Y * = 7 C C Z.AX",
"FXFXFXFXFXFXFXFXFXFXFXFXFXFXFXFXFXFXFXFXFXFXFXFXFXFXFXFXDXFXFXFXDXFXFXFXAX4X/.}.W 1 % 7 e.e.,.mX",
"FXFXFXFXFXFXFXFXFXFXFXFXFXFXFXFXFXFXFXFXFXFXFXFXFXFXFXFXFXFXFXFXFXFXFXFXDXuX|.|.Q % + g i.r.OXnX",
"FXFXFXFXFXFXFXFXFXFXFXFXFXFXFXFXFXFXFXFXFXFXFXFXFXFXFXFXFXFXFXFXFXFXFXFXFXmXyXwXA.2 + h ;Xi.8XSX",
"FXFXFXFXFXFXFXFXFXFXFXFXFXFXFXFXFXFXFXFXFXFXFXFXFXFXFXFXFXFXFXFXFXFXFXFXFXDXyXeXA.,   f gXu.8XFX",
"FXFXFXFXFXFXFXFXFXFXFXFXFXFXFXFXFXFXFXFXFXFXFXFXFXFXFXFXFXFXFXFXFXFXFXFXFXFXvXeX4.2 o j hXu.fXSX",
"FXFXFXFXFXFXFXFXFXFXFXFXFXFXFXFXFXFXFXFXFXFXFXFXFXFXFXFXFXFXFXFXFXFXFXFXFXFXmXuX4.4 ; &.,X9.9XFX",
"FXFXFXFXFXFXFXFXFXFXFXFXFXFXFXFXFXFXFXFXFXFXFXFXFXFXFXFXFXFXFXFXFXFXFXFXFXFXAXiX3.w - 7.:X0.9XFX",
"FXFXFXFXFXFXFXFXFXFXFXFXFXFXFXFXFXFXFXFXFXFXFXFXFXFXFXFXFXFXFXFXFXFXFXFXFXFXAXuX3.q q u.;X9.vXFX",
"FXFXFXFXFXFXFXFXFXFXFXFXFXFXFXFXFXFXFXFXFXFXFXFXFXFXFXFXFXFXFXFXFXFXFXFXFXFXmXuXW - p &X&XP.AXVX",
"FXFXFXFXFXFXFXFXFXFXFXFXFXFXFXFXFXFXFXFXFXFXFXFXFXFXFXFXFXFXFXFXDXFXFXFXFXFXBX9Xx . B ,XJ.8XFXFX",
"FXFXFXFXFXFXFXFXFXFXFXFXFXFXFXFXFXFXFXFXFXFXFXFXFXFXFXFXFXFXFXFXFXFXFXFXFXFXVXjXx 5 t.;XH.mXFXFX",
"FXFXFXFXFXFXFXFXFXFXFXFXFXFXFXFXFXFXFXFXFXFXFXFXFXFXFXFXFXFXFXFXFXFXFXFXFXFXFXCXq.;.;XJ.8XFXSXFX",
"FXFXFXFXFXFXFXFXFXFXFXFXFXFXFXFXFXFXFXFXFXFXFXFXFXFXFXFXFXFXFXFXFXFXFXFXFXFXFXFXCXzX,XH.jXFXFXFX",
"FXFXFXFXFXFXFXFXFXFXFXFXFXFXFXFXFXFXFXFXFXFXFXVXFXFXSXFXSXFXSXFXFXFXSXFXFXFXVXFXVXVX:XZ.mXSXVXFX"
};
